<svg width="505" height="555" viewBox="0 0 505 555" fill="none" xmlns="http://www.w3.org/2000/svg">
<path d="M173.699 45.8057C209.095 -14.5238 296.318 -14.5237 331.713 45.8057L332.999 47.9968C349.331 75.8287 379.097 93.0157 411.365 93.2417L413.908 93.2594C483.853 93.7492 527.464 169.286 492.914 230.105L491.659 232.314C475.72 260.372 475.72 294.746 491.659 322.804L492.914 325.012C527.464 385.832 483.853 461.368 413.908 461.858L411.365 461.874C379.097 462.102 349.331 479.289 332.999 507.12L331.713 509.311C296.318 569.641 209.095 569.641 173.699 509.311L172.413 507.12C156.083 479.289 126.314 462.102 94.0466 461.874L91.5063 461.858C21.561 461.368 -22.0499 385.832 12.4984 325.012L13.7532 322.804C29.6915 294.746 29.6915 260.372 13.7532 232.314L12.4984 230.105C-22.0499 169.286 21.561 93.7492 91.5063 93.2594L94.0466 93.2417C126.315 93.0157 156.083 75.8287 172.413 47.9968L173.699 45.8057Z" fill="#F3CE3A"/>
</svg>
