<svg width="54" height="109" viewBox="0 0 54 109" fill="none" xmlns="http://www.w3.org/2000/svg">
<path fill-rule="evenodd" clip-rule="evenodd" d="M3.83928 0.558624H-3.83923V34.5564L-16.575 3.0342L-23.6943 5.91059L-10.6286 38.2494L-35.2915 13.5865L-40.7209 19.016L-17.0826 42.6543L-47.716 29.2702L-50.7902 36.3064L-18.3765 50.4683H-53.7489V58.1468H-18.3765L-50.7902 72.3085L-47.716 79.3448L-17.0827 65.9608L-40.7209 89.599L-35.2915 95.0282L-10.6286 70.3655L-23.6943 102.705L-16.575 105.581L-3.83923 74.0586V108.056H3.83928V74.0586L16.5751 105.581L23.6941 102.705L10.6288 70.3655L35.2915 95.0282L40.7207 89.599L17.0825 65.9608L47.7161 79.3448L50.79 72.3085L18.3767 58.1468H53.7489V50.4683H18.3762L50.79 36.3064L47.7161 29.2702L17.0825 42.6543L40.7207 19.016L35.2915 13.5865L10.6288 38.2494L23.6941 5.91059L16.5751 3.0342L3.83928 34.5564V0.558624Z" fill="#525FE1"/>
</svg>
